@startuml
class "__gnu_cxx::__normal_iterator<std::shared_ptr<SampleInfo> const*,std::vector<std::shared_ptr<SampleInfo>>>" as C_0015107315506197025486
class C_0015107315506197025486 {
__
}
class "cv::Rect_<int>" as C_0011503404790081369597
class C_0011503404790081369597 {
__
}
class "cv::Point_<int>" as C_0009457203331583674562
class C_0009457203331583674562 {
__
}
class "cv::Ptr<cv::Feature2D>" as C_0008694131390083528216
class C_0008694131390083528216 {
__
}
class "cv::Ptr<cv::img_hash::ImgHashBase>" as C_0011498552137128780711
class C_0011498552137128780711 {
__
}
class "cv::Ptr<cv::DescriptorMatcher>" as C_0004455011570033198152
class C_0004455011570033198152 {
__
}
class "cv::Point_<float>" as C_0014702312740545146475
class C_0014702312740545146475 {
__
}
class "cv::Size_<int>" as C_0012828316383792434276
class C_0012828316383792434276 {
__
}
class "SampleInfo" as C_0012166469087437416517
class C_0012166469087437416517 {
__
}
class "Dataset" as C_0003886022289860541661
class C_0003886022289860541661 {
__
}
class "Dataset::Iterator" as C_0011781931224441327938
class C_0011781931224441327938 {
__
}
class "ImageDataset" as C_0009684978631677174329
class C_0009684978631677174329 {
__
}
class "ImageInfo" as C_0003004322020137568474
class C_0003004322020137568474 {
__
}
class "ObjectType" as C_0004719306933154942241
class C_0004719306933154942241 {
__
}
class "Label" as C_0009404847911411060149
class C_0009404847911411060149 {
__
}
class "CardType" as C_0017409270863638952695
class C_0017409270863638952695 {
__
}
enum "CardType::Suit" as C_0004406994460404523288
enum C_0004406994460404523288 {
SPADES
CLUBS
DIAMONDS
HEARTS
UNKNOWN
}
enum "CardType::Rank" as C_0017720071167233476991
enum C_0017720071167233476991 {
A
R2
R3
R4
R5
R6
R7
R8
R9
R10
J
Q
K
UNKNOWN
}
enum "card_color_utils::CardColor" as C_0011554863457081047323
enum C_0011554863457081047323 {
RED
BLACK
UNKNOWN
}
enum "Blackjack::HiLo" as C_0003046886232866757199
enum C_0003046886232866757199 {
Pos
Neutral
Neg
}
class "Feature" as C_0013209112481675569667
class C_0013209112481675569667 {
__
}
class "FeatureExtractor" as C_0001195104063191803326
class C_0001195104063191803326 {
__
}
class "TemplateDataset" as C_0010697321092279484174
class C_0010697321092279484174 {
__
}
class "TemplateInfo" as C_0010311377900075799291
class C_0010311377900075799291 {
__
}
class "FrameInfo" as C_0007882029088596470213
class C_0007882029088596470213 {
__
}
class "VideoDataset" as C_0010912529750976701490
class C_0010912529750976701490 {
__
}
class "VideoDataset::CaptureState" as C_0014677325266602632801
class C_0014677325266602632801 {
__
}
class "CardTracker" as C_0016090048435010588019
class C_0016090048435010588019 {
__
}
enum "CardTracker::CardState" as C_0017651456855510250026
enum C_0017651456855510250026 {
CANDIDATE
CONFIRMED
OCCLUDED
BACKGROUND
}
class "CardTracker::TrackedCard" as C_0016665569274605194262
class C_0016665569274605194262 {
__
}
class "ProcessingMode" as C_0017242650593710672434
class C_0017242650593710672434 {
__
}
class "CardDetector" as C_0011516409555189625039
class C_0011516409555189625039 {
__
}
class "YoloCardDetector" as C_0012188499077095028833
class C_0012188499077095028833 {
__
}
class "SequentialFrameProcessing" as C_0001820968804747951961
class C_0001820968804747951961 {
__
}
class "SingleFrameProcessing" as C_0000917408384075192514
class C_0000917408384075192514 {
__
}
enum "PipelinePreset" as C_0008784371108331930715
enum C_0008784371108331930715 {
NONE
DEFAULT
LOW_LIGHT
HIGH_LIGHT
SINGLE_CARD
}
enum "MaskType" as C_0001526044464984454921
enum C_0001526044464984454921 {
POLYGON
CONVEX_HULL
BOUNDING_BOX
}
class "MaskCardDetector" as C_0000322795484188588064
class C_0000322795484188588064 {
__
}
class "ObjectClassifier" as C_0013091704519496394340
class C_0013091704519496394340 {
__
}
class "ObjectSegmenter" as C_0011078278731095687805
class C_0011078278731095687805 {
__
}
class "SegmentationClassificationCardDetector" as C_0006422020256051954824
class C_0006422020256051954824 {
__
}
class "ImageFilter" as C_0000156186936286508469
class C_0000156186936286508469 {
__
}
class "ExtractorType" as C_0007220931630393019779
class C_0007220931630393019779 {
__
}
enum "ExtractorType::FeatureDescriptorAlgorithm" as C_0007864902835755853810
enum C_0007864902835755853810 {
SIFT
ORB
PHASH
COLOR_MOMENT_HASH
}
class "MatcherType" as C_0005075903470480100667
class C_0005075903470480100667 {
__
}
enum "MatcherType::MatcherAlgorithm" as C_0002412044637214463541
enum C_0002412044637214463541 {
BRUTEFORCE_HAMMING
FLANN
PHASH
COLOR_MOMENT_HASH
}
class "FeatureMatcher" as C_0002540756556307439686
class C_0002540756556307439686 {
__
}
class "FeatureContainer" as C_0000850561088136322465
class C_0000850561088136322465 {
__
}
class "FeaturePipeline" as C_0007515671693990773077
class C_0007515671693990773077 {
__
}
class "KeypointExtractor" as C_0010932504481083671360
class C_0010932504481083671360 {
__
}
class "HashFeature" as C_0010905019035547594885
class C_0010905019035547594885 {
__
}
class "HashExtractor" as C_0006442236536148712878
class C_0006442236536148712878 {
__
}
class "KeypointMatcher" as C_0004862978895369129534
class C_0004862978895369129534 {
__
}
class "HashMatcher" as C_0005916434157941030715
class C_0005916434157941030715 {
__
}
class "KeypointFeature" as C_0002596638195112562051
class C_0002596638195112562051 {
__
}
class "SimpleContoursCardSegmenter" as C_0018442101554143594452
class C_0018442101554143594452 {
__
}
class "SimpleContoursCardSegmenter::Params" as C_0014337743056613949091
class C_0014337743056613949091 {
__
}
class "VideoWriter" as C_0012748391507001784930
class C_0012748391507001784930 {
__
}
enum "DETECTION_MODE" as C_0001862080647619590887
enum C_0001862080647619590887 {
TEMPLATES
MODEL
}
C_0015107315506197025486 ..> C_0012166469087437416517
C_0003886022289860541661 ..> C_0011781931224441327938
C_0011781931224441327938 ..> C_0012166469087437416517
C_0011781931224441327938 o-- C_0015107315506197025486 : -current_
C_0009684978631677174329 ..> C_0011781931224441327938
C_0009684978631677174329 o-- C_0012166469087437416517 : -entries_
C_0003886022289860541661 <|-- C_0009684978631677174329
C_0012166469087437416517 <|-- C_0003004322020137568474
C_0009404847911411060149 o-- C_0004719306933154942241 : -object_
C_0009404847911411060149 o-- C_0011503404790081369597 : -bounding_boxes_
C_0017409270863638952695 o-- C_0017720071167233476991 : -rank
C_0017409270863638952695 o-- C_0004406994460404523288 : -suit
C_0004719306933154942241 <|-- C_0017409270863638952695
C_0001195104063191803326 ..> C_0013209112481675569667
C_0001195104063191803326 o-- C_0007864902835755853810 : #type_
C_0010697321092279484174 ..> C_0011781931224441327938
C_0010697321092279484174 o-- C_0012166469087437416517 : -entries_
C_0003886022289860541661 <|-- C_0010697321092279484174
C_0010311377900075799291 o-- C_0017409270863638952695 : -card_type_
C_0012166469087437416517 <|-- C_0010311377900075799291
C_0012166469087437416517 <|-- C_0007882029088596470213
C_0010912529750976701490 ..> C_0011781931224441327938
C_0010912529750976701490 o-- C_0012166469087437416517 : -entries_
C_0003886022289860541661 <|-- C_0010912529750976701490
C_0016090048435010588019 ..> C_0009404847911411060149
C_0016090048435010588019 ..> C_0016665569274605194262
C_0016090048435010588019 o-- C_0017409270863638952695 : -removed_this_frame_
C_0016665569274605194262 o-- C_0017409270863638952695 : +card
C_0016665569274605194262 o-- C_0017651456855510250026 : +state
C_0017242650593710672434 ..> C_0009404847911411060149
C_0011516409555189625039 ..> C_0009404847911411060149
C_0012188499077095028833 ..> C_0009404847911411060149
C_0011516409555189625039 <|-- C_0012188499077095028833
C_0001820968804747951961 ..> C_0009404847911411060149
C_0001820968804747951961 ..> C_0017409270863638952695
C_0001820968804747951961 ..> C_0016665569274605194262
C_0001820968804747951961 o-- C_0011516409555189625039 : -card_detector_
C_0001820968804747951961 o-- C_0016090048435010588019 : -tracker_
C_0017242650593710672434 <|-- C_0001820968804747951961
C_0000917408384075192514 ..> C_0009404847911411060149
C_0000917408384075192514 o-- C_0011516409555189625039 : -card_detector_
C_0017242650593710672434 <|-- C_0000917408384075192514
C_0000322795484188588064 ..> C_0008784371108331930715
C_0000322795484188588064 ..> C_0001526044464984454921
C_0013091704519496394340 ..> C_0004719306933154942241
C_0011078278731095687805 ..> C_0009457203331583674562
C_0006422020256051954824 ..> C_0009404847911411060149
C_0006422020256051954824 ..> C_0011554863457081047323
C_0006422020256051954824 o-- C_0000322795484188588064 : -mask_card_detector_
C_0006422020256051954824 o-- C_0013091704519496394340 : -object_classifier_
C_0006422020256051954824 o-- C_0011078278731095687805 : -object_segmenter_
C_0011516409555189625039 <|-- C_0006422020256051954824
C_0007220931630393019779 o-- C_0007864902835755853810 : -type
C_0005075903470480100667 o-- C_0002412044637214463541 : -type
C_0002540756556307439686 ..> C_0013209112481675569667
C_0002540756556307439686 o-- C_0002412044637214463541 : #type
C_0000850561088136322465 ..> C_0010697321092279484174
C_0000850561088136322465 ..> C_0001195104063191803326
C_0000850561088136322465 o-- C_0004719306933154942241 : -features_
C_0000850561088136322465 o-- C_0013209112481675569667 : -features_
C_0007515671693990773077 ..> C_0007864902835755853810
C_0007515671693990773077 ..> C_0010697321092279484174
C_0007515671693990773077 o-- C_0001195104063191803326 : -extractor_
C_0007515671693990773077 o-- C_0002540756556307439686 : -matcher_
C_0007515671693990773077 --> C_0004719306933154942241 : -template_features_
C_0007515671693990773077 --> C_0013209112481675569667 : -template_features_
C_0013091704519496394340 <|-- C_0007515671693990773077
C_0010932504481083671360 ..> C_0007864902835755853810
C_0010932504481083671360 ..> C_0013209112481675569667
C_0010932504481083671360 o-- C_0008694131390083528216 : -features_extractor
C_0001195104063191803326 <|-- C_0010932504481083671360
C_0013209112481675569667 <|-- C_0010905019035547594885
C_0006442236536148712878 ..> C_0007864902835755853810
C_0006442236536148712878 ..> C_0013209112481675569667
C_0006442236536148712878 o-- C_0011498552137128780711 : -hasher_
C_0001195104063191803326 <|-- C_0006442236536148712878
C_0004862978895369129534 ..> C_0002412044637214463541
C_0004862978895369129534 ..> C_0013209112481675569667
C_0004862978895369129534 o-- C_0004455011570033198152 : -features_matcher
C_0002540756556307439686 <|-- C_0004862978895369129534
C_0005916434157941030715 ..> C_0002412044637214463541
C_0005916434157941030715 ..> C_0013209112481675569667
C_0005916434157941030715 o-- C_0011498552137128780711 : -hasher_
C_0002540756556307439686 <|-- C_0005916434157941030715
C_0002596638195112562051 o-- C_0014702312740545146475 : -rect_points_
C_0013209112481675569667 <|-- C_0002596638195112562051
C_0018442101554143594452 ..> C_0009457203331583674562
C_0018442101554143594452 o-- C_0014337743056613949091 : -params_
C_0011078278731095687805 <|-- C_0018442101554143594452
C_0012748391507001784930 o-- C_0012828316383792434276 : -frameSize_

'Generated with clang-uml, version 0.6.2
'LLVM version Ubuntu clang version 18.1.3 (1ubuntu1)
@enduml
